<svg width="364" height="388" viewBox="0 0 364 388" fill="none" xmlns="http://www.w3.org/2000/svg">
<path fill-rule="evenodd" clip-rule="evenodd" d="M130.682 351.514C100.736 334.814 100.043 293.076 80.7397 264.856C63.6567 239.882 29.0516 226.226 24.5496 196.356C11.3491 108.774 145.737 14.0571 221.768 24.2235C444.401 53.993 328.285 461.712 130.682 351.514Z" fill="#E5ECFF"/>
<path d="M140.071 217.632C145.74 263.185 166.755 316.19 247.055 295.035C327.355 273.88 306.374 207.667 284.259 172.71C273.318 155.415 240.505 75.6077 183.184 93.4661C120.544 112.981 136.266 187.058 140.071 217.632Z" fill="url(#paint0_linear)"/>
<path d="M248.192 171.876C221.1 178.626 174.254 194.911 172.835 195.353C170.909 193.901 185.714 173.958 205.552 166.168C225.389 158.378 250.961 170.772 248.192 171.876Z" fill="url(#paint1_linear)"/>
<mask id="mask0" maskUnits="userSpaceOnUse" x="172" y="163" width="77" height="33">
<path d="M248.192 171.876C221.1 178.626 174.254 194.911 172.835 195.353C170.909 193.901 185.714 173.958 205.552 166.168C225.389 158.378 250.961 170.772 248.192 171.876Z" fill="#99DAC4"/>
</mask>
<g mask="url(#mask0)">
<ellipse rx="4.0232" ry="11.1073" transform="matrix(0.954738 -0.297449 0.302068 0.953286 192.432 181.799)" fill="#000007"/>
<ellipse rx="4.0232" ry="11.1073" transform="matrix(0.954738 -0.297449 0.302068 0.953286 226.736 172.238)" fill="#000007"/>
</g>
<path fill-rule="evenodd" clip-rule="evenodd" d="M191.291 188.989C192.829 191.422 194.509 192.792 195.788 192.394C197.089 191.989 197.674 189.847 197.504 186.903C195.342 187.623 193.263 188.321 191.291 188.989Z" fill="#000007"/>
<path fill-rule="evenodd" clip-rule="evenodd" d="M224.881 178.19C226.593 181.369 228.608 183.274 230.087 182.813C231.55 182.357 232.107 179.708 231.705 176.19C229.46 176.833 227.178 177.503 224.881 178.19Z" fill="#000007"/>
<ellipse rx="1.19922" ry="1.19092" transform="matrix(0.954738 -0.297449 0.302068 0.953286 190.214 178.712)" fill="white"/>
<ellipse rx="1.19922" ry="1.19093" transform="matrix(0.954738 -0.297449 0.302068 0.953286 224.166 168.135)" fill="white"/>
<path d="M155.4 104.375L159.009 108.08" stroke="#3E4671" stroke-width="4.49396" stroke-linecap="round"/>
<path d="M183.461 90.2629L184.743 95.2536" stroke="#3E4671" stroke-width="4.49396" stroke-linecap="round"/>
<path d="M213.068 88.8232L211.314 93.6708" stroke="#3E4671" stroke-width="4.49396" stroke-linecap="round"/>
<path d="M201.406 210.147C202.254 212.825 198.46 213.432 195.569 214.333C192.678 215.234 187.793 215.823 186.945 213.146C186.096 210.468 189.605 205.537 192.497 204.636C195.388 203.735 200.557 207.469 201.406 210.147Z" fill="white"/>
<path d="M230.167 201.186C231.015 203.864 234.478 202.211 237.369 201.31C240.26 200.409 244.607 198.123 243.759 195.445C242.91 192.768 237.188 190.713 234.297 191.614C231.405 192.514 229.318 198.509 230.167 201.186Z" fill="white"/>
<path d="M171.979 215.404C186.798 215.753 225.019 210.931 259.346 188.856" stroke="#3E4671" stroke-width="4.49396" stroke-linecap="round"/>
<path fill-rule="evenodd" clip-rule="evenodd" d="M158.761 118.981C161.803 119.802 159.243 126.529 157.384 126.679C155.526 126.83 156.228 117.92 158.761 118.981ZM156.021 130.216C157.304 130.788 157.56 134.108 155.859 134.152C154.159 134.196 154.293 130.754 156.021 130.216ZM149.207 130.076C150.939 132.684 149.977 139.617 146.01 138.568C141.052 137.258 146.547 127.287 149.207 130.076Z" fill="#BFCAE8"/>
<path fill-rule="evenodd" clip-rule="evenodd" d="M272.81 249.51C275.452 249.652 279.969 243.417 278.082 242.073C276.195 240.729 269.416 247.509 272.81 249.51ZM282.758 254.78C286.472 255.232 285.369 270.705 278.405 271.265C271.44 271.826 275.371 257.081 282.758 254.78ZM285.616 245.359C284.824 246.786 283.749 249.61 285.789 249.49C288.338 249.339 287.98 244.623 285.616 245.359Z" fill="#BFCAE8"/>
<defs>
<linearGradient id="paint0_linear" x1="246.72" y1="97.4922" x2="198.182" y2="310.834" gradientUnits="userSpaceOnUse">
<stop stop-color="#A9D4EC" stop-opacity="0.78"/>
<stop offset="0.447917" stop-color="#96AFE0" stop-opacity="0.75"/>
<stop offset="1" stop-color="#514FB0" stop-opacity="0.87"/>
</linearGradient>
<linearGradient id="paint1_linear" x1="205.114" y1="166.214" x2="210.533" y2="183.608" gradientUnits="userSpaceOnUse">
<stop stop-color="#789DD1"/>
<stop offset="1" stop-color="#B0C4E1"/>
</linearGradient>
</defs>
</svg>
