<svg width="120" height="160" viewBox="0 0 120 160" fill="none" xmlns="http://www.w3.org/2000/svg">
<g clip-path="url(#clip0)">
<g clip-path="url(#clip1)">
<path d="M53.436 117.731C51.1821 113.223 51.5577 104.727 52.0273 101.042C56.2174 99.8505 64.4458 97.8566 63.8389 99.417C63.0804 101.368 63.4055 108.303 63.8389 113.938C64.2724 119.573 56.2535 123.365 53.436 117.731Z" fill="url(#paint0_linear)"/>
<path d="M83.8859 70.5934C83.8859 93.5661 76.5173 101.802 58.7459 102.668C34.9346 103.83 30.1385 96.6002 28.838 73.1941C29.7049 55.4228 23.2033 23.3478 58.7459 36.7845C74.5454 36.7845 83.8859 39.8187 83.8859 70.5934Z" fill="#F9DBC0"/>
<path d="M102.091 73.6271C102.091 79.1331 96.5643 84.0891 92.5548 84.4635C74.839 86.1178 83.0188 81.7339 83.0188 76.2279C83.0188 70.7219 86.1819 65.825 91.6879 65.825C97.1938 65.825 102.091 68.1212 102.091 73.6271Z" fill="#F9DBC0"/>
<path fill-rule="evenodd" clip-rule="evenodd" d="M87.7537 74.3478C85.6811 75.6826 84.0282 78.1018 83.1526 79.9571L81.5847 79.2171C82.5332 77.2074 84.3642 74.4685 86.8149 72.8901C88.0547 72.0916 89.4893 71.5679 91.0624 71.6308C92.6431 71.6941 94.6513 72.9669 96.2663 74.3478L95.9548 74.5888C94.5789 73.4124 92.3652 72.8901 91.2138 72.8901C90.0832 72.8449 88.7755 73.6897 87.7537 74.3478Z" fill="#F8C291"/>
<path fill-rule="evenodd" clip-rule="evenodd" d="M89.5379 84.4063C90.4488 84.4273 91.4516 84.4378 92.5545 84.4378C96.0222 84.4378 102.091 79.1074 102.091 73.6014C102.091 68.4304 97.7714 66.0905 92.6849 65.825C95.7201 69.3936 99.0007 77.7977 89.5379 84.4063Z" fill="url(#paint1_linear)"/>
<path d="M43.9004 78.1782C43.9004 82.4434 40.662 83.3797 36.6671 83.3797C32.6723 83.3797 29.4338 81.0509 29.4338 78.1782C29.4338 73.809 32.6723 72.9767 36.6671 72.9767C40.662 72.9767 43.9004 75.3055 43.9004 78.1782Z" fill="url(#paint2_radial)"/>
<path d="M75.2763 77.9073C75.2763 82.1725 72.0378 83.1088 68.043 83.1088C64.0481 83.1088 60.8097 80.78 60.8097 77.9073C60.8097 73.5381 64.0481 72.7059 68.043 72.7059C72.0378 72.7059 75.2763 75.0346 75.2763 77.9073Z" fill="url(#paint3_radial)"/>
<path d="M35.255 1.63281C38.0616 6.78154 40.3484 14.0351 37.3244 20.0831C33.003 28.726 35.5629 38.416 38.5414 42.1932C29.5234 44.7771 19.8475 42.9522 17.6022 27.2351C16.0484 16.3588 24.7055 5.63726 35.255 1.63281Z" fill="url(#paint4_linear)"/>
<path d="M92.5547 65.8249C91.5433 62.3573 90.9076 54.1218 96.4557 47.1867C103.391 38.5177 100.79 20.313 85.6195 15.9785C80.4551 14.5029 77.2497 14.2832 74.6524 14.1051C69.6201 13.76 66.8707 13.5715 56.5786 4.70886C40.9745 -8.728 14.9676 9.04333 17.5683 27.2481C20.169 45.4529 32.739 45.0194 42.7082 40.685C52.6775 36.3505 59.1792 35.4836 67.8482 38.0843C69.2624 38.5086 70.5959 38.9674 71.826 39.5475C71.8185 39.5553 71.8109 39.5632 71.8034 39.5711C78.0828 42.5557 81.6373 48.7563 79.4666 69.7395C80.9285 70.4638 82.4451 71.1728 83.8857 71.8932C84.3192 69.8704 87.3533 65.8249 92.5547 65.8249Z" fill="url(#paint5_linear)"/>
<path d="M37.4068 85.1946C34.1514 85.9371 31.5324 84.6821 29.8041 83.2023C32.1714 98.6736 38.3692 103.603 58.7541 102.641C68.5118 102.18 74.9038 99.5559 78.9087 93.6485C78.9603 93.5724 78.9603 93.5723 79.0063 93.5031C79.5824 92.6366 80.1105 91.8119 80.5806 90.8023C80.9381 90.0346 81.0682 89.7187 81.4475 88.7976C81.6268 88.3623 81.8454 87.717 81.9081 87.4702C83.2897 82.4585 83.8165 77.0092 83.8857 71.8889L79.4699 69.726C78.5753 74.4228 77.1663 79.4061 73.8893 82.1489C72.4032 83.3927 70.5959 84.1925 68.3983 84.3277C64.6457 84.5586 62.1234 83.59 59.6352 82.6344C57.4531 81.7964 55.2973 80.9685 52.3608 80.9685C48.598 80.9685 46.1947 81.9783 43.5462 83.0911C41.771 83.8371 39.8856 84.6293 37.4068 85.1946Z" fill="url(#paint6_linear)"/>
<path d="M42.5999 58.5647C42.2207 56.7226 32.8472 56.9393 33.6599 59.9735C34.4726 63.0077 43.521 61.4364 42.5999 58.5647Z" fill="#133353"/>
<path d="M63.3271 58.5885C63.8972 56.7961 73.1965 57.9933 72.0705 60.9257C70.9444 63.8581 62.1104 61.3479 63.3271 58.5885Z" fill="#133353"/>
<path d="M48.3972 75.1986C47.7111 74.1382 50.5464 63.9468 51.919 58.7814H53.4361C54.7003 64.3441 56.3942 75.1113 55.7185 75.8691C54.9938 76.6818 49.1734 76.3982 48.3972 75.1986Z" fill="url(#paint7_linear)"/>
<path d="M39.6054 65.8047C39.5591 66.8556 39.3833 67.7014 38.497 67.6624C37.6107 67.6233 37.5101 66.7653 37.5564 65.7145C37.6027 64.6636 37.877 63.8221 38.6647 63.8568C39.4524 63.8916 39.6517 64.7539 39.6054 65.8047Z" fill="#133353"/>
<path d="M67.9591 66.9968C67.9128 68.0476 67.737 68.8934 66.8507 68.8544C65.9644 68.8153 65.8638 67.9573 65.9101 66.9065C65.9564 65.8556 66.2307 65.0142 67.0184 65.0489C67.8061 65.0836 68.0054 65.9459 67.9591 66.9968Z" fill="#133353"/>
<path fill-rule="evenodd" clip-rule="evenodd" d="M59.863 85.7007C56.0639 89.6646 49.3454 88.8248 46.6092 86.0692L46.7988 85.4732C50.4832 87.8224 55.0796 87.8175 58.6755 84.4374L59.863 85.7007Z" fill="#F9DBC0"/>
<path fill-rule="evenodd" clip-rule="evenodd" d="M32.5674 61.2313L38.7979 75.9537C38.345 75.9634 37.8891 75.9454 37.4344 75.8997C37.2453 75.8807 37.0569 75.8569 36.8695 75.8285L31.6412 62.0833C31.9311 61.7829 32.2407 61.4982 32.5674 61.2313Z" fill="white" fill-opacity="0.4"/>
<path d="M34.5812 75.1494L31.1135 62.1999L30.4092 63.1752L33.335 75.1494H34.5812Z" fill="white" fill-opacity="0.4"/>
<path fill-rule="evenodd" clip-rule="evenodd" d="M44.1054 60.9654C47.0915 63.5535 48.1708 67.8086 46.5401 71.408C44.96 74.8955 41.0685 76.4603 37.259 76.077C33.4522 75.694 29.917 73.392 29.1026 69.6536C28.2872 65.911 30.53 62.3242 33.8447 60.4047C37.1218 58.5069 41.2437 58.4851 44.1054 60.9654Z" fill="white" fill-opacity="0.3" stroke="#172E47" stroke-width="1.30034"/>
<path d="M64.0854 76.5586L58.9652 63.5008C59.4182 63.4911 58.9748 62.4635 59.4295 62.5092C59.6186 62.5283 59.807 62.552 59.9944 62.5804L65.2227 76.3257C64.9328 76.626 64.4121 76.2917 64.0854 76.5586Z" fill="white" fill-opacity="0.4"/>
<path d="M61.0906 61.7628L65.7244 76.9921L66.6268 76.0455L61.9723 61.198L61.0906 61.7628Z" fill="white" fill-opacity="0.4"/>
<path fill-rule="evenodd" clip-rule="evenodd" d="M61.4006 74.6531C58.4145 72.065 57.3352 67.8099 58.9659 64.2105C60.5459 60.723 64.4375 59.1583 68.247 59.5416C72.0538 59.9246 75.589 62.2266 76.4034 65.9649C77.2188 69.7075 74.976 73.2943 71.6613 75.2138C68.3842 77.1116 64.2623 77.1334 61.4006 74.6531Z" fill="white" fill-opacity="0.3" stroke="#172E47" stroke-width="1.30034"/>
<path d="M46.5013 63.8253C48.5241 61.8566 54.3686 59.2415 58.7465 64.5296" stroke="#172E47" stroke-width="1.30034"/>
<path d="M19.0853 209.079L26.2457 162.5C-2.79522 186.556 8.14953 203.694 2 196C2 151 -1.99999 129 41.008 113.836C45.2036 112.612 48.4735 111.766 51.6751 111.174C51.8196 114.281 53.4902 118.543 57.7705 118.543C62.7973 118.543 63.2699 113.89 63.6491 111.174L76.5171 113.836C94.7219 118.489 114.16 140.749 118.67 154.849C125.063 174.837 118.084 188.457 94.5051 190.658C81.5017 191.871 73.1217 187.551 68.9317 178.088L75.4335 174.837C84.1024 181.483 103.044 189.401 109.459 167.902C102.1 150.594 90.3316 132.558 82.1939 121.335L56.2534 180.472H37.8319C37.1596 192.06 35.3396 206.494 35.3396 209.079C30.6583 212.027 22.5529 210.307 19.0853 209.079Z" fill="#E2EFFB"/>
<path d="M41.1369 113.836L37.9402 180.472H56.6887L81.5082 121.335C83.4054 124.07 85.5089 127.209 87.7074 130.644L88.1902 119.879C84.0277 117.008 79.9081 114.86 76.0767 113.836L63.7648 111.174C63.4019 113.89 62.9499 118.543 58.1402 118.543C54.0449 118.543 51.4612 114.66 51.3229 111.554C48.374 112.123 44.9522 112.679 41.1369 113.836Z" fill="#C4DBEF"/>
<path d="M20.8429 123.138C19.7242 127.348 18.9319 131.092 19.0046 132.252C19.0732 133.345 21.5733 133.33 23.8056 133.316C25.2883 133.307 26.6529 133.299 27.1084 133.617C27.8208 134.114 26.5324 136.117 25.3245 137.995C24.5971 139.126 23.8988 140.212 23.6843 140.896C23.229 142.347 31.4123 170.397 37.6832 184L41 114C34.7224 115.933 28.7427 118.94 20.8429 123.138Z" fill="url(#paint8_linear)"/>
<path d="M95.8597 122.882C95.1462 126.97 89.0586 137.35 88.5334 138.325C88.0384 139.244 85.8887 138.238 83.9692 137.339C82.6943 136.743 81.5209 136.193 81.0014 136.287C80.1891 136.434 80.5015 138.68 80.7944 140.785C80.9708 142.052 81.1401 143.269 81.0524 143.946C80.8663 145.384 69.034 168.215 58.2039 177.497L76.8426 113.793C83.398 116.652 82.802 115.839 95.8597 122.882Z" fill="url(#paint9_linear)"/>
<path d="M41.1099 113.794C43.6844 119.632 49.0637 131.395 50.3162 132.491C51.5755 133.593 56.219 123.768 58.3834 118.718C60.4494 123.542 64.9282 133.051 66.3152 132.491C67.607 131.97 73.1622 120.58 76.7615 113.91C71.6413 112.718 68.2043 112.125 63.6081 111.174C63.2289 113.89 62.9332 118.516 57.9062 118.516C53.7484 118.516 52.2584 114.073 51.8514 111.039C48.6862 111.624 45.2414 112.59 41.1099 113.794Z" fill="white"/>
<path d="M49.2099 148.83L57.1205 131.275L58.9626 130.192L66.1147 148.83L57.1205 173.754L49.2099 148.83Z" fill="url(#paint10_linear)"/>
<path d="M53.1272 129.494C54.9356 126.416 57.1021 121.718 58.3903 118.712C59.6235 121.592 61.7164 126.141 63.4983 129.221C62.5188 130.965 60.9295 132.657 58.5904 132.923C55.8861 133.23 54.1113 131.34 53.1272 129.494Z" fill="url(#paint11_linear)"/>
<path d="M96.4557 194.293L120.891 145.584L112.22 146.645L86.9198 195.972L96.4557 194.293Z" fill="#5C468A"/>
<path d="M94.4292 194.824L119.046 146.173L111.288 146.753L86.5948 196.406L94.4292 194.824Z" fill="#FFF6D6"/>
<path d="M85.5083 122.757C82.7164 124.003 76.6702 124.134 76.6702 124.134L111.248 146.885L120.933 145.585C120.933 145.585 85.7868 122.633 85.5083 122.757Z" fill="#5C468A"/>
<path d="M82.7356 123.938L77.2084 125.05L109.839 148.944L119.05 146.181L85.9599 124.553C85.0129 123.934 83.855 123.713 82.7356 123.938Z" fill="#F8E7AD"/>
<path d="M76.4101 125.199C75.937 124.835 76.091 124.096 76.6673 123.965L83.0665 122.512C84.1883 122.258 85.3749 122.519 86.2983 123.225L86.4055 123.307L76.4101 125.199Z" fill="#5C468A"/>
<path d="M51.2485 176.243L76.1994 124.398L111.342 146.776L85.9718 198.004L51.2485 176.243Z" fill="#5C468A"/>
<path d="M104.963 158.951L97.9259 173.515L85.965 198.018L51.0374 176.318L63.972 150.043L75.0001 126.89C79.4565 128.809 88.0689 135.071 94.1274 146.944C97.3764 153.311 101.238 156.297 104.963 158.951Z" fill="url(#paint12_linear)"/>
<path d="M80.4833 124.404L77.2219 125.043L76.2127 124.404C76.291 124.237 76.4184 124.054 76.6394 124.014L79.4163 123.37C79.6192 123.669 80.0598 124.203 80.4833 124.404Z" fill="url(#paint13_linear)"/>
<path d="M91.1695 144.391C90.7145 142.906 88.4113 143.611 88.8664 145.097C89.1206 145.926 89.3274 149.056 87.3762 149.578C85.425 150.1 84.5877 146.673 84.3718 144.931C84.0916 142.669 81.062 143.347 81.786 145.359C82.5694 147.536 85.4981 149.797 83.1496 151.958C80.8011 154.119 77.8014 151.592 76.388 152.086C74.9216 152.598 75.7159 154.872 77.1824 154.36C78.2043 154.003 80.517 153.702 81.1892 154.23C81.8615 154.758 81.955 155.953 81.3561 156.416C80.7573 156.879 78.6941 157.408 77.9832 157.877C76.1729 159.071 78.2205 161.286 79.7459 159.775C80.442 159.085 82.3015 156.302 83.5951 157.49C84.8887 158.677 82.4303 161.16 81.7413 162.165C80.8628 163.446 82.8493 164.808 83.7279 163.527C84.5439 162.337 84.2383 158.851 86.129 158.624C88.0198 158.396 87.959 162.228 88.5888 163.152C89.4637 164.436 91.4541 163.079 90.5792 161.795C89.0441 159.543 88.8452 158.815 90.2204 157.087C91.5955 155.358 93.7943 156.838 95.7185 158.346C97.6426 159.854 99.2603 155.816 96.555 155.706C93.8496 155.595 92.3364 154.869 92.5009 153.468C92.6655 152.067 96.1723 150.151 97.9494 148.978C100.083 147.57 96.9996 145.189 95.7709 147.609C95.2057 148.723 93.1613 151.378 91.2109 150.364C89.2606 149.349 91.5488 145.629 91.1695 144.391Z" fill="#A78CDF"/>
<path d="M61.157 152.899C61.2004 150.624 62.7102 149.856 63.4597 149.757L64.6516 154.525L65.5185 157.938L66.1416 162.923L62.7281 164.576C62.1863 161.632 61.1136 155.175 61.157 152.899Z" fill="#F6CEA9"/>
<path d="M59.1521 157.964C59.0871 156.144 60.5518 155.291 61.2923 155.093L64.2451 160.321L64.6244 164.52L62.0508 167.094C61.1116 164.809 59.2171 159.785 59.1521 157.964Z" fill="#F6CEA9"/>
<path d="M61.2922 155.147C61.3612 157.552 61.6688 162.45 62.5448 163.927C62.66 164.053 62.7151 164.114 62.6739 164.114C62.6296 164.06 62.5866 163.997 62.5448 163.927C61.9017 163.223 59.3852 160.5 61.2922 155.147Z" fill="url(#paint14_linear)"/>
<path d="M64.8884 147.853L68.0039 141.419C70.8755 147.421 71.4971 154.959 73.0495 155.657C74.1315 156.144 74.4316 154.218 74.6207 152.948C74.8105 151.674 74.7726 147.626 77.384 147.897C79.0366 148.261 78.2691 157.522 78.1969 162.977L75.0435 168.229L66.0493 169.096L64.9657 158.043V148.398L64.8884 147.853Z" fill="url(#paint15_linear)"/>
<path d="M103.933 190.5C118.561 187.899 127.772 175.113 118.561 154.307L108.551 165.875C97.4986 173.961 97.4308 177.722 75.5959 174.458L68.864 177.722C74.0247 185.082 91.0742 192.786 103.933 190.5Z" fill="#E2EFFB"/>
<path d="M78.4138 165.36C77.521 169.22 76.9868 171.803 75.542 174.512L68.9318 177.763C66.5831 175.478 64.9434 173.086 63.8388 170.67C61.7798 166.166 61.658 167.013 61.7528 165.293C61.8538 163.458 66.4185 151.503 69.0808 156.989C69.9748 158.831 70.8226 161.18 71.7493 161.459C72.1834 161.59 72.9907 161.617 73.158 161.075C74.946 155.282 76.3547 151.404 76.8424 150.347C77.33 149.291 78.82 149.968 79.0096 150.347C79.1993 150.726 78.7697 163.821 78.4138 165.36Z" fill="#F6CEA9"/>
<path d="M65.8435 145.964C66.1856 147.059 68.8412 156.294 70.2318 160.701V162.38L65.7889 165.306C64.6872 160.791 63.7357 152.132 63.4999 151.294C61.9289 145.706 65.6066 145.205 65.8435 145.964Z" fill="#F6CEA9"/>
<path d="M63.1885 149.837C63.6852 153.711 65.253 161.627 66.4666 162.299C66.3805 162.239 62.0508 164.087 63.1885 149.837Z" fill="url(#paint16_linear)"/>
</g>
</g>
<defs>
<linearGradient id="paint0_linear" x1="57.7709" y1="98.8441" x2="57.7709" y2="120.508" gradientUnits="userSpaceOnUse">
<stop stop-color="#F0B580"/>
<stop offset="1" stop-color="#F9DBC0"/>
</linearGradient>
<linearGradient id="paint1_linear" x1="102.632" y1="73.3562" x2="95.2637" y2="74.8191" gradientUnits="userSpaceOnUse">
<stop stop-color="#F4C092"/>
<stop offset="1" stop-color="#F9DBC0"/>
</linearGradient>
<radialGradient id="paint2_radial" cx="0" cy="0" r="1" gradientUnits="userSpaceOnUse" gradientTransform="translate(36.6671 77.6972) rotate(90) scale(4.88044 6.78686)">
<stop stop-color="#F0B580"/>
<stop offset="1" stop-color="#F9DBC0"/>
</radialGradient>
<radialGradient id="paint3_radial" cx="0" cy="0" r="1" gradientUnits="userSpaceOnUse" gradientTransform="translate(68.043 77.4263) rotate(90) scale(4.88044 6.78686)">
<stop stop-color="#F0B580"/>
<stop offset="1" stop-color="#F9DBC0"/>
</radialGradient>
<linearGradient id="paint4_linear" x1="0.880302" y1="39.3854" x2="34.6898" y2="30.2829" gradientUnits="userSpaceOnUse">
<stop stop-color="#1F4469"/>
<stop offset="1" stop-color="#123252"/>
</linearGradient>
<linearGradient id="paint5_linear" x1="87.2808" y1="44.586" x2="87.064" y2="83.5962" gradientUnits="userSpaceOnUse">
<stop stop-color="#123252"/>
<stop offset="1" stop-color="#04080D"/>
</linearGradient>
<linearGradient id="paint6_linear" x1="79.5512" y1="69.8072" x2="72.8949" y2="88.9749" gradientUnits="userSpaceOnUse">
<stop offset="0.00120852" stop-color="#091624"/>
<stop offset="0.686893" stop-color="#123252"/>
</linearGradient>
<linearGradient id="paint7_linear" x1="52.2173" y1="58.7814" x2="52.2173" y2="76.7601" gradientUnits="userSpaceOnUse">
<stop stop-color="#F9DBC0"/>
<stop offset="1" stop-color="#F0B580"/>
</linearGradient>
<linearGradient id="paint8_linear" x1="10.0114" y1="155.322" x2="42.652" y2="151.657" gradientUnits="userSpaceOnUse">
<stop stop-color="#B2CDE7"/>
<stop offset="1" stop-color="#9CBCDB"/>
</linearGradient>
<linearGradient id="paint9_linear" x1="87.0917" y1="161.862" x2="60.3939" y2="145.746" gradientUnits="userSpaceOnUse">
<stop stop-color="#B2CDE7"/>
<stop offset="1" stop-color="#9CBCDB"/>
</linearGradient>
<linearGradient id="paint10_linear" x1="57.6623" y1="130.192" x2="57.6623" y2="173.754" gradientUnits="userSpaceOnUse">
<stop stop-color="#2A4056"/>
<stop offset="1" stop-color="#445C75"/>
</linearGradient>
<linearGradient id="paint11_linear" x1="58.3127" y1="118.712" x2="58.3127" y2="132.956" gradientUnits="userSpaceOnUse">
<stop stop-color="#2A4056"/>
<stop offset="1" stop-color="#445C75"/>
</linearGradient>
<linearGradient id="paint12_linear" x1="96.3905" y1="146.401" x2="59.9832" y2="174.942" gradientUnits="userSpaceOnUse">
<stop offset="0.0365479" stop-color="#5C468A"/>
<stop offset="0.688339" stop-color="#3D2C61"/>
</linearGradient>
<linearGradient id="paint13_linear" x1="78.6462" y1="123.423" x2="76.7509" y2="124.98" gradientUnits="userSpaceOnUse">
<stop stop-color="#5C468A"/>
<stop offset="1" stop-color="#2C1C4F"/>
</linearGradient>
<linearGradient id="paint14_linear" x1="62.0028" y1="158.582" x2="59.3507" y2="160.433" gradientUnits="userSpaceOnUse">
<stop stop-color="#EEB989"/>
<stop offset="1" stop-color="#F6CEA9"/>
</linearGradient>
<linearGradient id="paint15_linear" x1="72.2883" y1="146.83" x2="64.6183" y2="160.855" gradientUnits="userSpaceOnUse">
<stop offset="0.0365479" stop-color="#4A3772"/>
<stop offset="0.854537" stop-color="#332355"/>
</linearGradient>
<linearGradient id="paint16_linear" x1="65.4423" y1="154.7" x2="61.6842" y2="157.538" gradientUnits="userSpaceOnUse">
<stop stop-color="#EEB989"/>
<stop offset="1" stop-color="#F6CEA9"/>
</linearGradient>
<clipPath id="clip0">
<path d="M120 0H0V160H120V0Z" fill="white"/>
</clipPath>
<clipPath id="clip1">
<rect x="-52" width="172" height="251" fill="white"/>
</clipPath>
</defs>
</svg>
