<svg width="47" height="56" viewBox="0 0 47 56" fill="none" xmlns="http://www.w3.org/2000/svg">
<path d="M36.7285 38.4826C36.7285 51.0057 32.7116 55.4951 23.0239 55.9676C10.0436 56.6008 7.42913 52.6597 6.72021 39.9003C7.19278 30.2126 3.64855 12.7276 23.0239 20.0523C31.6367 20.0523 36.7285 21.7063 36.7285 38.4826Z" fill="#F9DBC0"/>
<path d="M46.6525 40.1365C46.6525 43.138 43.6398 45.8397 41.4541 46.0438C31.7968 46.9456 36.2558 44.5557 36.2558 41.5543C36.2558 38.5528 37.9801 35.8833 40.9816 35.8833C43.9831 35.8833 46.6525 37.135 46.6525 40.1365Z" fill="#F9DBC0"/>
<path fill-rule="evenodd" clip-rule="evenodd" d="M38.837 40.5293C37.7072 41.2569 36.8062 42.5757 36.3289 43.5871L35.4741 43.1837C35.9912 42.0881 36.9893 40.5951 38.3253 39.7347C39.0012 39.2994 39.7832 39.0139 40.6407 39.0482C41.5024 39.0827 42.5972 39.7765 43.4775 40.5293L43.3077 40.6607C42.5577 40.0194 41.3509 39.7347 40.7233 39.7347C40.1069 39.71 39.3941 40.1706 38.837 40.5293Z" fill="#F8C291"/>
<path fill-rule="evenodd" clip-rule="evenodd" d="M39.8101 46.0123C40.3067 46.0238 40.8534 46.0295 41.4547 46.0295C43.345 46.0295 46.6531 43.1237 46.6531 40.1223C46.6531 37.3033 44.2984 36.0278 41.5255 35.8831C43.1801 37.8284 44.9685 42.4098 39.8101 46.0123Z" fill="url(#paint0_linear)"/>
<path d="M14.9316 42.6175C14.9316 44.9425 13.1662 45.4529 10.9885 45.4529C8.81079 45.4529 7.04541 44.1834 7.04541 42.6175C7.04541 40.2357 8.81079 39.782 10.9885 39.782C13.1662 39.782 14.9316 41.0515 14.9316 42.6175Z" fill="url(#paint1_radial)"/>
<path d="M32.0351 42.4695C32.0351 44.7946 30.2697 45.305 28.092 45.305C25.9143 45.305 24.1489 44.0355 24.1489 42.4695C24.1489 40.0877 25.9143 39.634 28.092 39.634C30.2697 39.634 32.0351 40.9035 32.0351 42.4695Z" fill="url(#paint2_radial)"/>
<path d="M10.2184 0.890137C11.7484 3.69687 12.995 7.65103 11.3465 10.948C8.99078 15.6594 10.3863 20.9418 12.01 23.0008C7.09398 24.4094 1.81932 23.4146 0.595342 14.8467C-0.251657 8.91774 4.4676 3.07308 10.2184 0.890137Z" fill="url(#paint3_linear)"/>
<path d="M41.4541 35.8832C40.9028 33.9929 40.5562 29.5034 43.5807 25.7229C47.3612 20.9972 45.9435 11.0732 37.6736 8.71035C34.8583 7.90599 33.1109 7.78618 31.6951 7.6891C28.9518 7.50101 27.453 7.39825 21.8425 2.56694C13.3362 -4.7579 -0.840925 4.92979 0.576786 14.8538C1.9945 24.7777 8.84677 24.5415 14.2813 22.1786C19.7159 19.8158 23.2602 19.3432 27.9859 20.7609C28.7568 20.9922 29.4837 21.2423 30.1543 21.5585C30.1502 21.5628 30.1461 21.5671 30.142 21.5714C33.5651 23.1984 35.5027 26.5785 34.3194 38.0171C35.1164 38.412 35.9431 38.7984 36.7284 39.1911C36.9647 38.0885 38.6187 35.8832 41.4541 35.8832Z" fill="url(#paint4_linear)"/>
<path d="M11.3915 46.4422C9.61687 46.8469 8.18921 46.1628 7.24707 45.3561C8.53752 53.79 11.9162 56.477 23.0286 55.9526C28.3478 55.7016 31.8323 54.271 34.0155 51.0506C34.0436 51.0092 34.0436 51.0091 34.0687 50.9714C34.3827 50.4991 34.6706 50.0495 34.9269 49.4991C35.1217 49.0806 35.1927 48.9084 35.3994 48.4063C35.4972 48.169 35.6164 47.8172 35.6505 47.6827C36.4037 44.9506 36.6908 41.9801 36.7286 39.1889L34.3214 38.0098C33.8337 40.5702 33.0656 43.2867 31.2792 44.7819C30.4691 45.4599 29.4839 45.8959 28.2859 45.9696C26.2403 46.0955 24.8653 45.5675 23.5089 45.0466C22.3194 44.5897 21.1441 44.1384 19.5434 44.1384C17.4922 44.1384 16.182 44.6889 14.7383 45.2955C13.7706 45.7022 12.7428 46.134 11.3915 46.4422Z" fill="url(#paint5_linear)"/>
<path d="M14.2225 31.9255C14.0157 30.9212 8.90595 31.0394 9.34899 32.6934C9.79204 34.3474 14.7246 33.4909 14.2225 31.9255Z" fill="#133353"/>
<path d="M25.5216 31.9383C25.8323 30.9612 30.9016 31.6138 30.2878 33.2124C29.674 34.8109 24.8583 33.4425 25.5216 31.9383Z" fill="#133353"/>
<path d="M17.3827 40.9929C17.0087 40.4149 18.5543 34.8592 19.3025 32.0435H20.1295C20.8187 35.0758 21.7421 40.9454 21.3738 41.3584C20.9787 41.8015 17.8058 41.6469 17.3827 40.9929Z" fill="url(#paint6_linear)"/>
<path d="M12.5898 35.8721C12.5646 36.445 12.4688 36.906 11.9856 36.8847C11.5025 36.8635 11.4476 36.3957 11.4729 35.8229C11.4981 35.25 11.6476 34.7913 12.0771 34.8103C12.5065 34.8292 12.6151 35.2993 12.5898 35.8721Z" fill="#133353"/>
<path d="M28.0464 36.522C28.0211 37.0949 27.9253 37.5559 27.4422 37.5347C26.959 37.5134 26.9042 37.0457 26.9294 36.4728C26.9546 35.8999 27.1042 35.4412 27.5336 35.4602C27.963 35.4791 28.0716 35.9492 28.0464 36.522Z" fill="#133353"/>
<path fill-rule="evenodd" clip-rule="evenodd" d="M23.6333 46.7182C21.5623 48.879 17.8998 48.4212 16.4082 46.9191L16.5116 46.5942C18.52 47.8748 21.0257 47.8721 22.9859 46.0295L23.6333 46.7182Z" fill="#F9DBC0"/>
<path fill-rule="evenodd" clip-rule="evenodd" d="M8.75391 33.3789L12.1504 41.4046C11.9034 41.4099 11.6549 41.4001 11.407 41.3751C11.304 41.3648 11.2013 41.3518 11.0991 41.3363L8.24902 33.8434C8.40702 33.6796 8.57581 33.5244 8.75391 33.3789Z" fill="white" fill-opacity="0.4"/>
<path d="M9.85095 40.9661L7.96063 33.907L7.57666 34.4386L9.17162 40.9661H9.85095Z" fill="white" fill-opacity="0.4"/>
<path fill-rule="evenodd" clip-rule="evenodd" d="M15.0434 33.234C16.6712 34.6448 17.2596 36.9644 16.3706 38.9266C15.5093 40.8277 13.3879 41.6807 11.3112 41.4718C9.23601 41.263 7.30888 40.0081 6.86491 37.9702C6.42044 35.93 7.64305 33.9747 9.44997 32.9283C11.2364 31.8938 13.4834 31.8819 15.0434 33.234Z" fill="white" fill-opacity="0.3" stroke="#172E47" stroke-width="0.708856"/>
<path d="M25.9347 41.7343L23.1436 34.6161C23.3905 34.6108 23.1488 34.0506 23.3966 34.0755C23.4997 34.0859 23.6024 34.0988 23.7046 34.1143L26.5547 41.6073C26.3967 41.771 26.1128 41.5888 25.9347 41.7343Z" fill="white" fill-opacity="0.4"/>
<path d="M24.3024 33.6688L26.8284 41.9707L27.3203 41.4547L24.783 33.3609L24.3024 33.6688Z" fill="white" fill-opacity="0.4"/>
<path fill-rule="evenodd" clip-rule="evenodd" d="M24.4712 40.6957C22.8434 39.2848 22.2551 36.9652 23.144 35.0031C24.0053 33.102 26.1268 32.249 28.2034 32.4579C30.2786 32.6667 32.2058 33.9216 32.6497 35.9595C33.0942 37.9997 31.8716 39.955 30.0647 41.0014C28.2782 42.0359 26.0312 42.0478 24.4712 40.6957Z" fill="white" fill-opacity="0.3" stroke="#172E47" stroke-width="0.708856"/>
<path d="M16.3491 34.793C17.4518 33.7199 20.6378 32.2943 23.0243 35.177" stroke="#172E47" stroke-width="0.708856"/>
<defs>
<linearGradient id="paint0_linear" x1="46.9484" y1="39.9886" x2="42.9315" y2="40.7861" gradientUnits="userSpaceOnUse">
<stop stop-color="#F4C092"/>
<stop offset="1" stop-color="#F9DBC0"/>
</linearGradient>
<radialGradient id="paint1_radial" cx="0" cy="0" r="1" gradientUnits="userSpaceOnUse" gradientTransform="translate(10.9885 42.3552) rotate(90) scale(2.66048 3.69972)">
<stop stop-color="#F0B580"/>
<stop offset="1" stop-color="#F9DBC0"/>
</radialGradient>
<radialGradient id="paint2_radial" cx="0" cy="0" r="1" gradientUnits="userSpaceOnUse" gradientTransform="translate(28.092 42.2073) rotate(90) scale(2.66048 3.69972)">
<stop stop-color="#F0B580"/>
<stop offset="1" stop-color="#F9DBC0"/>
</radialGradient>
<linearGradient id="paint3_linear" x1="-8.52027" y1="21.4702" x2="9.91032" y2="16.5082" gradientUnits="userSpaceOnUse">
<stop stop-color="#1F4469"/>
<stop offset="1" stop-color="#123252"/>
</linearGradient>
<linearGradient id="paint4_linear" x1="38.5792" y1="24.3052" x2="38.461" y2="45.5708" gradientUnits="userSpaceOnUse">
<stop stop-color="#123252"/>
<stop offset="1" stop-color="#04080D"/>
</linearGradient>
<linearGradient id="paint5_linear" x1="34.3657" y1="38.0541" x2="30.7371" y2="48.503" gradientUnits="userSpaceOnUse">
<stop offset="0.00120852" stop-color="#091624"/>
<stop offset="0.686893" stop-color="#123252"/>
</linearGradient>
<linearGradient id="paint6_linear" x1="19.4651" y1="32.0435" x2="19.4651" y2="41.8442" gradientUnits="userSpaceOnUse">
<stop stop-color="#F9DBC0"/>
<stop offset="1" stop-color="#F0B580"/>
</linearGradient>
</defs>
</svg>
