<svg width="18" height="20" viewBox="0 0 18 20" fill="none" xmlns="http://www.w3.org/2000/svg">
<path fill-rule="evenodd" clip-rule="evenodd" d="M9.3645 7.96871C9.60749 8.21179 9.90266 8.33324 10.25 8.33324H17.3333V18.7501C17.3333 19.0975 17.2117 19.3924 16.9687 19.6356C16.7257 19.8785 16.4307 20.0001 16.0836 20.0001H1.91672C1.56952 20.0001 1.27439 19.8785 1.03131 19.6356C0.788229 19.3926 0.666733 19.0975 0.666733 18.7501V1.24994C0.666733 0.902646 0.788229 0.60748 1.03131 0.364534C1.27435 0.12145 1.56952 0 1.91667 0H9.00001V7.0833C9.00001 7.4306 9.12142 7.72576 9.3645 7.96871ZM12.3856 0.885303L16.4482 4.94799C16.8819 5.38184 17.1642 5.95466 17.2944 6.66667H10.6666V0.0389354C11.3783 0.169005 11.9514 0.451265 12.3856 0.885303Z" fill="#A9A9A9"/>
</svg>
