<svg width="18" height="18" viewBox="0 0 18 18" fill="none" xmlns="http://www.w3.org/2000/svg">
<path d="M14.5361 7.58032L14.2452 7.87137C14.6166 9.05127 14.6358 10.319 14.3006 11.5083L16.3826 9.42597C18.5384 7.2694 18.5395 3.77329 16.3836 1.61671C14.334 -0.433898 11.0767 -0.533239 8.9079 1.31555C8.89782 1.32414 8.88924 1.33273 8.88061 1.34137C8.87312 1.34886 8.8656 1.3564 8.85703 1.364C8.77884 1.43276 8.70891 1.50302 8.63579 1.57648C8.62255 1.58978 8.6092 1.60319 8.59569 1.61671L6.53528 3.69869L6.1039 4.17239C3.6168 6.66029 4.0776 10.8281 6.87886 12.6812L8.80232 10.7544C6.96107 9.98441 6.36618 7.51768 7.86498 6.0184L10.4198 3.46237C10.4805 3.40137 10.5442 3.3456 10.609 3.29122C10.6352 3.26961 10.6617 3.2487 10.6885 3.22813C10.7247 3.1999 10.7617 3.17341 10.799 3.14692C10.885 3.08661 10.9732 3.0298 11.0638 2.97926C12.1712 2.36369 13.5967 2.52298 14.5361 3.46272C15.671 4.59799 15.671 6.44504 14.5361 7.58032Z" fill="#A9A9A9"/>
<path d="M3.46432 10.4201L3.75528 10.1287C3.38383 8.94879 3.36466 7.68105 3.69988 6.4921L1.61787 8.57442C-0.53836 10.7307 -0.539754 14.2271 1.61647 16.3833C3.66608 18.4339 6.92376 18.5333 9.09254 16.6841C9.10292 16.6755 9.11171 16.6667 9.12061 16.6579C9.12784 16.6507 9.13513 16.6434 9.14341 16.636C9.22455 16.5644 9.2968 16.4916 9.37295 16.415C9.38346 16.4044 9.39405 16.3937 9.40475 16.383L11.4652 14.301L11.8965 13.8273C14.0142 11.7089 14.0112 8.04939 11.9809 6.01839C11.7136 5.75104 11.4251 5.51716 11.1216 5.31604L9.19777 7.24047C11.0688 8.02096 11.6037 10.5139 10.1358 11.9824L7.5806 14.538C7.51997 14.599 7.4562 14.6552 7.39139 14.7092C7.37215 14.7251 7.35272 14.7406 7.33325 14.7562C7.32626 14.7618 7.31928 14.7674 7.31229 14.773C7.27605 14.8009 7.23877 14.8273 7.20148 14.8538C7.11541 14.9141 7.02726 14.9706 6.93666 15.0211C5.82927 15.6364 4.4034 15.4771 3.46432 14.5377C2.32941 13.4024 2.32941 11.555 3.46432 10.4201Z" fill="#A9A9A9"/>
</svg>
