<svg width="184" height="60" viewBox="0 0 184 60" fill="none" xmlns="http://www.w3.org/2000/svg">
<path d="M23.1832 26H17.8807V4.63128H7.61029V26H2.32537V0.350491H23.1832V26ZM44.6576 16.6457C44.6576 19.5818 43.9882 21.9365 42.6494 23.7099C41.3223 25.4715 39.5254 26.3523 37.2587 26.3523C35.3327 26.3523 33.7766 25.6829 32.5904 24.3441V33.3284H27.4992V6.93903H32.2204L32.3966 8.80637C33.6297 7.32659 35.2387 6.5867 37.2235 6.5867C39.5724 6.5867 41.3986 7.45578 42.7022 9.19393C44.0058 10.9321 44.6576 13.3279 44.6576 16.3814V16.6457ZM39.5665 16.2757C39.5665 14.5023 39.2494 13.1341 38.6152 12.1711C37.9927 11.2081 37.0826 10.7266 35.8846 10.7266C34.2874 10.7266 33.1893 11.3373 32.5904 12.5587V20.3627C33.2128 21.6194 34.3227 22.2477 35.9199 22.2477C38.3509 22.2477 39.5665 20.257 39.5665 16.2757ZM59.3145 6.93903H64.4056V26H59.3145V14.2322L52.9373 26H47.8286V6.93903H52.9373V18.6892L59.3145 6.93903ZM68.6336 26V6.93903H76.5962C79.1917 6.93903 81.1823 7.39706 82.5682 8.31311C83.954 9.22917 84.6469 10.5445 84.6469 12.2592C84.6469 13.14 84.3533 13.9328 83.7661 14.6374C83.1906 15.3303 82.345 15.8647 81.2293 16.2405C82.5917 16.4989 83.6604 17.0098 84.4355 17.7731C85.2224 18.5248 85.6158 19.4526 85.6158 20.5565C85.6158 22.3299 84.9464 23.6805 83.6075 24.6083C82.2804 25.5361 80.3485 26 77.8117 26H68.6336ZM73.7247 18.0902V21.9306H77.8294C79.6262 21.9306 80.5247 21.3023 80.5247 20.0456C80.5247 18.7655 79.6673 18.1137 77.9527 18.0902H73.7247ZM73.7247 14.6726H76.8781C78.6632 14.6492 79.5558 14.0737 79.5558 12.9462C79.5558 12.2533 79.3091 11.7601 78.8159 11.4665C78.3344 11.1728 77.5945 11.026 76.5962 11.026H73.7247V14.6726ZM100.22 6.93903H105.311V26H100.22V14.2322L93.8427 26H88.7339V6.93903H93.8427V18.6892L100.22 6.93903ZM109.539 26V6.93903H117.502C120.097 6.93903 122.088 7.39706 123.473 8.31311C124.859 9.22917 125.552 10.5445 125.552 12.2592C125.552 13.14 125.259 13.9328 124.671 14.6374C124.096 15.3303 123.25 15.8647 122.135 16.2405C123.497 16.4989 124.566 17.0098 125.341 17.7731C126.128 18.5248 126.521 19.4526 126.521 20.5565C126.521 22.3299 125.852 23.6805 124.513 24.6083C123.186 25.5361 121.254 26 118.717 26H109.539ZM114.63 18.0902V21.9306H118.735C120.532 21.9306 121.43 21.3023 121.43 20.0456C121.43 18.7655 120.573 18.1137 118.858 18.0902H114.63ZM114.63 14.6726H117.783C119.569 14.6492 120.461 14.0737 120.461 12.9462C120.461 12.2533 120.214 11.7601 119.721 11.4665C119.24 11.1728 118.5 11.026 117.502 11.026H114.63V14.6726ZM137.109 18.971H135.065V26H129.974V6.93903H135.065V14.1089H136.88L141.037 6.93903H147.467L141.231 16.0115L148.048 26H141.266L137.109 18.971ZM161.454 6.93903H166.546V26H161.454V14.2322L155.077 26H149.969V6.93903H155.077V18.6892L161.454 6.93903Z" fill="#363636"/>
<path d="M6.85631 51.2046H2.5579L1.59252 53.8823H0.197304L4.1152 43.6225H5.29902L9.22396 53.8823H7.83578L6.85631 51.2046ZM2.96661 50.0913H6.45466L4.70711 45.2926L2.96661 50.0913ZM10.3373 52.8183L10.7883 52.2616C11.2956 51.6039 11.5846 50.6174 11.655 49.3021L11.7748 46.2579H16.6863V52.8183H17.6657V56.1231H16.3621V53.8823H11.042V56.1231H9.73836L9.7454 52.8183H10.3373ZM11.8805 52.8183H15.3827V47.4629H13.0362L12.9586 49.2809C12.8788 50.7983 12.5194 51.9774 11.8805 52.8183ZM23.5003 52.1559L26.0934 46.2579H27.7212V53.8823H26.4176V48.3367L23.9513 53.8823H23.0493L20.5337 48.2169V53.8823H19.2301V46.2579H20.9213L23.5003 52.1559ZM34.7537 46.2579H36.0573V53.8823H34.7537V48.3226L31.2374 53.8823H29.9338V46.2579H31.2374V51.8247L34.7537 46.2579ZM44.3793 53.8823H43.0757V50.6268H39.5735V53.8823H38.2629V46.2579H39.5735V49.5628H43.0757V46.2579H44.3793V53.8823ZM51.4118 46.2579H52.7154V53.8823H51.4118V48.3226L47.8955 53.8823H46.5919V46.2579H47.8955V51.8247L51.4118 46.2579ZM57.8664 52.9592C58.3315 52.9592 58.7378 52.8183 59.0855 52.5364C59.4331 52.2546 59.6257 51.9022 59.6633 51.4794H60.8964C60.873 51.9163 60.7226 52.3321 60.4455 52.7267C60.1683 53.1213 59.7972 53.436 59.3321 53.6709C58.8717 53.9058 58.3832 54.0233 57.8664 54.0233C56.8282 54.0233 56.0014 53.678 55.386 52.9874C54.7753 52.2921 54.47 51.3432 54.47 50.1406V49.9222C54.47 49.1799 54.6062 48.5199 54.8787 47.9421C55.1511 47.3642 55.5411 46.9156 56.0484 46.5962C56.5605 46.2767 57.1641 46.117 57.8594 46.117C58.7144 46.117 59.4237 46.373 59.9874 46.8851C60.5559 47.3971 60.8589 48.0619 60.8964 48.8793H59.6633C59.6257 48.386 59.4378 47.982 59.0996 47.6673C58.766 47.3478 58.3526 47.1881 57.8594 47.1881C57.197 47.1881 56.6826 47.4277 56.3162 47.9068C55.9545 48.3813 55.7736 49.0695 55.7736 49.9715V50.2181C55.7736 51.0966 55.9545 51.7731 56.3162 52.2475C56.6779 52.722 57.1947 52.9592 57.8664 52.9592ZM68.0276 47.3149H65.4697V53.8823H64.1661V47.3149H61.6575V46.2579H68.0276V47.3149ZM75.7365 50.1547C75.7365 51.315 75.4711 52.2499 74.9403 52.9592C74.4094 53.6686 73.6907 54.0233 72.784 54.0233C71.8586 54.0233 71.1304 53.7296 70.5996 53.1424V56.8137H69.296V46.2579H70.4868L70.5502 47.1035C71.0811 46.4458 71.8186 46.117 72.7629 46.117C73.6789 46.117 74.4024 46.4623 74.9332 47.1529C75.4687 47.8434 75.7365 48.8041 75.7365 50.0349V50.1547ZM74.4329 50.0067C74.4329 49.147 74.2497 48.4682 73.8833 47.9703C73.5168 47.4723 73.0142 47.2233 72.3753 47.2233C71.5861 47.2233 70.9942 47.5733 70.5996 48.2733V51.9163C70.9895 52.6116 71.5861 52.9592 72.3894 52.9592C73.0142 52.9592 73.5098 52.7126 73.8762 52.2193C74.2473 51.7214 74.4329 50.9838 74.4329 50.0067ZM82.1066 53.8823C82.0315 53.732 81.9704 53.4642 81.9234 53.079C81.3174 53.7085 80.594 54.0233 79.7531 54.0233C79.0014 54.0233 78.3837 53.8119 77.8998 53.3891C77.4207 52.9616 77.1811 52.4213 77.1811 51.7684C77.1811 50.9744 77.4817 50.359 78.083 49.9222C78.689 49.4806 79.5393 49.2598 80.6339 49.2598H81.9023V48.6608C81.9023 48.2051 81.766 47.8434 81.4936 47.5756C81.2211 47.3032 80.8194 47.1669 80.2886 47.1669C79.8235 47.1669 79.4336 47.2844 79.1189 47.5193C78.8041 47.7542 78.6468 48.0384 78.6468 48.3719H77.3361C77.3361 47.9914 77.47 47.625 77.7377 47.2726C78.0102 46.9156 78.3766 46.6338 78.837 46.4271C79.3021 46.2204 79.8118 46.117 80.3661 46.117C81.2446 46.117 81.9328 46.3378 82.4308 46.7794C82.9287 47.2163 83.1871 47.8199 83.2059 48.5904V52.0995C83.2059 52.7995 83.2951 53.3562 83.4737 53.7696V53.8823H82.1066ZM79.9433 52.8888C80.352 52.8888 80.7396 52.7831 81.106 52.5717C81.4724 52.3603 81.7379 52.0854 81.9023 51.7472V50.1829H80.8805C79.2833 50.1829 78.4847 50.6503 78.4847 51.5851C78.4847 51.9938 78.6209 52.3133 78.8934 52.5435C79.1659 52.7737 79.5158 52.8888 79.9433 52.8888ZM90.8021 47.3149H88.2442V53.8823H86.9406V47.3149H84.432V46.2579H90.8021V47.3149ZM97.0031 46.2579H98.3067V53.8823H97.0031V48.3226L93.4868 53.8823H92.1832V46.2579H93.4868V51.8247L97.0031 46.2579ZM100.519 53.8823V46.2579H103.493C104.508 46.2579 105.285 46.4364 105.825 46.7935C106.37 47.1458 106.643 47.6649 106.643 48.3508C106.643 48.7031 106.537 49.0225 106.326 49.3091C106.114 49.591 105.802 49.8071 105.388 49.9574C105.849 50.0654 106.218 50.2768 106.495 50.5916C106.777 50.9063 106.918 51.2821 106.918 51.719C106.918 52.419 106.659 52.9545 106.142 53.3256C105.63 53.6968 104.905 53.8823 103.965 53.8823H100.519ZM101.823 50.5352V52.8324H103.979C104.524 52.8324 104.93 52.7314 105.198 52.5294C105.471 52.3274 105.607 52.0432 105.607 51.6767C105.607 50.9157 105.048 50.5352 103.93 50.5352H101.823ZM101.823 49.4923H103.507C104.728 49.4923 105.339 49.1353 105.339 48.4212C105.339 47.7072 104.761 47.3384 103.606 47.3149H101.823V49.4923ZM114.873 53.8823H113.57V50.6268H110.067V53.8823H108.757V46.2579H110.067V49.5628H113.57V46.2579H114.873V53.8823ZM121.68 53.8823C121.605 53.732 121.544 53.4642 121.497 53.079C120.891 53.7085 120.167 54.0233 119.327 54.0233C118.575 54.0233 117.957 53.8119 117.473 53.3891C116.994 52.9616 116.755 52.4213 116.755 51.7684C116.755 50.9744 117.055 50.359 117.657 49.9222C118.263 49.4806 119.113 49.2598 120.207 49.2598H121.476V48.6608C121.476 48.2051 121.34 47.8434 121.067 47.5756C120.795 47.3032 120.393 47.1669 119.862 47.1669C119.397 47.1669 119.007 47.2844 118.692 47.5193C118.378 47.7542 118.22 48.0384 118.22 48.3719H116.91C116.91 47.9914 117.044 47.625 117.311 47.2726C117.584 46.9156 117.95 46.6338 118.411 46.4271C118.876 46.2204 119.385 46.117 119.94 46.117C120.818 46.117 121.506 46.3378 122.004 46.7794C122.502 47.2163 122.761 47.8199 122.779 48.5904V52.0995C122.779 52.7995 122.869 53.3562 123.047 53.7696V53.8823H121.68ZM119.517 52.8888C119.926 52.8888 120.313 52.7831 120.68 52.5717C121.046 52.3603 121.311 52.0854 121.476 51.7472V50.1829H120.454C118.857 50.1829 118.058 50.6503 118.058 51.5851C118.058 51.9938 118.194 52.3133 118.467 52.5435C118.739 52.7737 119.089 52.8888 119.517 52.8888ZM130.65 46.2579V53.8823H129.34V50.9157H127.374L125.577 53.8823H124.168L126.084 50.7184C125.596 50.5399 125.22 50.2651 124.957 49.894C124.698 49.5181 124.569 49.0813 124.569 48.5833C124.569 47.888 124.83 47.329 125.351 46.9062C125.873 46.4787 126.57 46.2626 127.444 46.2579H130.65ZM125.88 48.5974C125.88 48.9685 126.007 49.2692 126.26 49.4994C126.514 49.7248 126.85 49.8399 127.268 49.8446H129.34V47.3149H127.465C126.982 47.3149 126.596 47.4347 126.31 47.6743C126.023 47.9092 125.88 48.2169 125.88 48.5974ZM142.559 53.8823H141.256V47.3361H137.746V53.8823H136.436V46.2579H142.559V53.8823ZM149.359 53.8823C149.284 53.732 149.223 53.4642 149.176 53.079C148.57 53.7085 147.846 54.0233 147.006 54.0233C146.254 54.0233 145.636 53.8119 145.152 53.3891C144.673 52.9616 144.434 52.4213 144.434 51.7684C144.434 50.9744 144.734 50.359 145.335 49.9222C145.941 49.4806 146.792 49.2598 147.886 49.2598H149.155V48.6608C149.155 48.2051 149.018 47.8434 148.746 47.5756C148.474 47.3032 148.072 47.1669 147.541 47.1669C147.076 47.1669 146.686 47.2844 146.371 47.5193C146.057 47.7542 145.899 48.0384 145.899 48.3719H144.589C144.589 47.9914 144.722 47.625 144.99 47.2726C145.263 46.9156 145.629 46.6338 146.089 46.4271C146.555 46.2204 147.064 46.117 147.619 46.117C148.497 46.117 149.185 46.3378 149.683 46.7794C150.181 47.2163 150.44 47.8199 150.458 48.5904V52.0995C150.458 52.7995 150.548 53.3562 150.726 53.7696V53.8823H149.359ZM147.196 52.8888C147.604 52.8888 147.992 52.7831 148.358 52.5717C148.725 52.3603 148.99 52.0854 149.155 51.7472V50.1829H148.133C146.536 50.1829 145.737 50.6503 145.737 51.5851C145.737 51.9938 145.873 52.3133 146.146 52.5435C146.418 52.7737 146.768 52.8888 147.196 52.8888ZM158.731 53.8823H157.427V50.6268H153.925V53.8823H152.615V46.2579H153.925V49.5628H157.427V46.2579H158.731V53.8823ZM163.995 54.0233C162.961 54.0233 162.12 53.685 161.472 53.0085C160.824 52.3274 160.5 51.4184 160.5 50.2815V50.0419C160.5 49.2856 160.643 48.6115 160.93 48.0196C161.221 47.423 161.625 46.9579 162.142 46.6244C162.663 46.2861 163.227 46.117 163.833 46.117C164.824 46.117 165.594 46.4435 166.144 47.0965C166.694 47.7495 166.968 48.6843 166.968 49.901V50.4436H161.803C161.822 51.1952 162.041 51.8036 162.459 52.2687C162.881 52.729 163.417 52.9592 164.065 52.9592C164.526 52.9592 164.916 52.8653 165.235 52.6774C165.554 52.4895 165.834 52.2405 166.074 51.9304L166.87 52.5505C166.231 53.5323 165.273 54.0233 163.995 54.0233ZM163.833 47.1881C163.307 47.1881 162.865 47.3807 162.508 47.7659C162.151 48.1464 161.93 48.682 161.846 49.3725H165.665V49.2739C165.627 48.6115 165.449 48.0994 165.129 47.7377C164.81 47.3713 164.378 47.1881 163.833 47.1881ZM174.734 46.2579V53.8823H173.423V47.3361H170.83L170.675 50.1899C170.59 51.5006 170.37 52.4378 170.013 53.0015C169.66 53.5652 169.099 53.8588 168.328 53.8823H167.807V52.7337L168.18 52.7055C168.603 52.6586 168.906 52.4143 169.089 51.9727C169.273 51.5311 169.39 50.7137 169.442 49.5205L169.583 46.2579H174.734ZM178.25 48.8863H180.23C181.094 48.8957 181.778 49.1212 182.281 49.5628C182.783 50.0044 183.035 50.6033 183.035 51.3597C183.035 52.1207 182.776 52.7314 182.259 53.1918C181.743 53.6521 181.047 53.8823 180.174 53.8823H176.946V46.2579H178.25V48.8863ZM178.25 49.9503V52.8183H180.188C180.676 52.8183 181.055 52.6938 181.322 52.4448C181.59 52.1911 181.724 51.8459 181.724 51.409C181.724 50.9862 181.592 50.6409 181.329 50.3731C181.071 50.1007 180.707 49.9597 180.237 49.9503H178.25Z" fill="#757575"/>
</svg>
