<svg width="36" height="36" viewBox="0 0 36 36" fill="none" xmlns="http://www.w3.org/2000/svg">
<path fill-rule="evenodd" clip-rule="evenodd" d="M36 18C36 27.9412 27.9412 36 18 36C8.05884 36 0 27.9412 0 18C0 8.05884 8.05884 0 18 0C27.9412 0 36 8.05884 36 18ZM29.7037 28.8C26.4443 31.814 22.3925 33.6 18.0018 33.6C13.6111 33.6 9.55939 31.814 6.29993 28.8C9.55939 25.786 13.6111 24 18.0018 24C22.3925 24 26.4443 25.786 29.7037 28.8ZM18 20.4C21.7278 20.4 24.75 17.3779 24.75 13.65C24.75 9.92203 21.7278 6.89996 18 6.89996C14.2722 6.89996 11.25 9.92203 11.25 13.65C11.25 17.3779 14.2722 20.4 18 20.4Z" fill="#23AEA3"/>
</svg>
