<svg width="24" height="24" viewBox="0 0 24 24" fill="none" xmlns="http://www.w3.org/2000/svg">
<path fill-rule="evenodd" clip-rule="evenodd" d="M15.75 14.5H14.95L14.65 14.2C15.65 13.1 16.25 11.6 16.25 10C16.25 6.4 13.35 3.5 9.75 3.5C6.15 3.5 3.25 6.4 3.25 10C3.25 13.6 6.15 16.5 9.75 16.5C11.35 16.5 12.85 15.9 13.95 14.9L14.25 15.2V16L19.25 21L20.75 19.5L15.75 14.5ZM9.75 14.5C7.25 14.5 5.25 12.5 5.25 10C5.25 7.5 7.25 5.5 9.75 5.5C12.25 5.5 14.25 7.5 14.25 10C14.25 12.5 12.25 14.5 9.75 14.5Z" fill="#A9A9A9"/>
</svg>
